<svg xmlns="http://www.w3.org/2000/svg" viewBox="0 0 50 50"><defs><style>.cls-1{fill:#3b6877;}.cls-2{fill:#28afb0;}.cls-3{fill:#3dbb9f;}.cls-4{fill:#0f1626;}</style></defs><title>Asset 1Social Icons</title><g id="Layer_2" data-name="Layer 2"><g id="Logo"><polygon class="cls-1" points="25 40.9 0 26.01 0 30.47 0 30.52 0 34.98 25 49.9 50 34.98 50 30.52 50 30.47 50 26.01 25 40.9"/><polygon class="cls-2" points="25 27.89 0 13.01 0 17.47 0 17.52 0 21.98 25 36.89 50 21.98 50 17.52 50 17.47 50 13.01 25 27.89"/><polygon class="cls-3" points="25 14.89 0 0 0 4.46 0 4.51 0 8.97 25 23.89 50 8.97 50 4.51 50 4.46 50 0 25 14.89"/><polygon class="cls-4" points="0 50 18.47 50 0 38.98 0 50"/><polygon class="cls-4" points="31.53 50 50 50 50 38.98 31.53 50"/></g></g></svg>